<svg width="110" height="28" viewBox="0 0 110 28" fill="none" xmlns="http://www.w3.org/2000/svg">
<path d="M9.39188 19.098C7.09588 19.098 5.68188 17.754 5.68188 15.402V9.2H6.52188V15.318C6.52188 17.166 7.59988 18.272 9.39188 18.272C11.1839 18.272 12.2479 17.166 12.2479 15.318V9.2H13.0879V15.402C13.0879 17.74 11.6739 19.098 9.39188 19.098ZM15.8297 19V9.2H16.6697V19H15.8297Z" fill="url(#paint0_radial_1605_3680)"/>
<rect x="0.5" y="3.25" width="21.5" height="21.5" rx="5.5" stroke="url(#paint1_radial_1605_3680)"/>
<path d="M35.377 22.207C33.261 22.207 30.915 21.425 29.42 19.861L30.317 18.803C31.559 20.137 33.56 20.873 35.469 20.873C37.884 20.873 39.494 19.7 39.494 17.814C39.494 15.675 37.332 14.985 35.055 14.272C32.525 13.513 29.857 12.639 29.857 9.81C29.857 7.142 32.18 5.67 35.009 5.67C37.079 5.67 39.126 6.452 40.322 7.717L39.425 8.706C38.344 7.602 36.642 7.027 35.009 7.027C32.755 7.027 31.26 8.154 31.26 9.764C31.26 11.719 33.537 12.317 35.952 13.076C38.344 13.858 40.943 14.824 40.943 17.699C40.943 20.597 38.413 22.207 35.377 22.207ZM47.4993 22.069C45.4753 22.069 44.2103 21.149 44.2103 18.941V11.259H42.5313V10.362C42.9683 10.224 43.6583 10.109 44.2103 10.063V7.28L45.4983 7.096V10.04H49.7073V11.259H45.4983V18.734C45.4983 20.229 46.2803 20.827 47.6603 20.827C48.3043 20.827 49.4313 20.712 49.9603 20.528V21.701C49.4083 21.931 48.3043 22.069 47.4993 22.069ZM52.8748 22V10.04H53.8638C54.0018 10.523 54.1168 11.305 54.1398 12.11C55.0828 10.73 56.7158 9.879 58.6708 9.879H58.7398C61.6378 9.879 63.1328 11.466 63.1328 14.341V22H61.8448V14.548C61.8448 12.386 60.7868 11.167 58.5558 11.167H58.4638C55.9108 11.167 54.1628 12.731 54.1628 15.146V22H52.8748ZM73.2555 22.161C69.4835 22.161 67.1605 19.953 67.1605 16.089V5.9H68.5405V15.951C68.5405 18.987 70.3115 20.804 73.2555 20.804C76.1995 20.804 77.9475 18.987 77.9475 15.951V5.9H79.3275V16.089C79.3275 19.93 77.0045 22.161 73.2555 22.161ZM83.8319 22V5.9H85.2119V22H83.8319Z" fill="white"/>
<defs>
<radialGradient id="paint0_radial_1605_3680" cx="0" cy="0" r="1" gradientUnits="userSpaceOnUse" gradientTransform="translate(20.5833 -20.6875) rotate(106.612) scale(63.3959 29.5959)">
<stop offset="0.225997" stop-color="#FFCF14"/>
<stop offset="0.56197" stop-color="#EE8FFF"/>
<stop offset="0.942809" stop-color="#38DEFF"/>
</radialGradient>
<radialGradient id="paint1_radial_1605_3680" cx="0" cy="0" r="1" gradientUnits="userSpaceOnUse" gradientTransform="translate(26.25 -29.3594) rotate(110.986) scale(81.3323 46.3441)">
<stop offset="0.225997" stop-color="#FFCF14"/>
<stop offset="0.56197" stop-color="#EE8FFF"/>
<stop offset="0.942809" stop-color="#38DEFF"/>
</radialGradient>
</defs>
</svg>
